<svg id="Слой_1" data-name="Слой 1" xmlns="http://www.w3.org/2000/svg" xmlns:xlink="http://www.w3.org/1999/xlink" viewBox="0 0 340.16 340.16"><defs><style>.cls-1{fill:#172845;}.cls-2{fill:url(#Безымянный_градиент_56);}.cls-3{fill:url(#Безымянный_градиент_56-2);}</style><linearGradient id="Безымянный_градиент_56" x1="77" y1="140.31" x2="218.64" y2="140.31" gradientUnits="userSpaceOnUse"><stop offset="0.01" stop-color="#ead7b5"/><stop offset="0.13" stop-color="#dcc7a4"/><stop offset="0.19" stop-color="#d4bf9b"/><stop offset="0.41" stop-color="#fafafa"/><stop offset="0.73" stop-color="#d3b593"/><stop offset="0.95" stop-color="#f2ca9a"/></linearGradient><linearGradient id="Безымянный_градиент_56-2" x1="141.88" y1="133.12" x2="258.33" y2="198.58" xlink:href="#Безымянный_градиент_56"/></defs><path class="cls-1" d="M223.56,240.38a7.59,7.59,0,0,1,0-10.2,8.84,8.84,0,0,1,5.72-1.85v-3.5a.81.81,0,0,1,.22-.57.77.77,0,0,1,.57-.22h2.83a.75.75,0,0,1,.56.22.8.8,0,0,1,.21.57v3.5a8.71,8.71,0,0,1,5.72,1.85,7.56,7.56,0,0,1,0,10.2,8.61,8.61,0,0,1-5.72,1.86v3.51a.75.75,0,0,1-.77.78h-2.83a.77.77,0,0,1-.57-.22.79.79,0,0,1-.22-.56v-3.51A8.63,8.63,0,0,1,223.56,240.38Zm3.25-8.26a6.41,6.41,0,0,0,0,6.31,3.18,3.18,0,0,0,2.55,1v-8.35A3.23,3.23,0,0,0,226.81,232.12Zm6.79,7.34a3.14,3.14,0,0,0,2.54-1,4.86,4.86,0,0,0,.84-3.16,4.79,4.79,0,0,0-.84-3.14,3.23,3.23,0,0,0-2.54-1Z"/><path class="cls-1" d="M160.7,122.19a4.2,4.2,0,0,1,0,4.2l-45.47,78.77a4.07,4.07,0,0,1-3.51,2H105.6a4.2,4.2,0,0,1-3.63-6.3L150.44,117a4.2,4.2,0,0,1,7.27,0Z"/><path class="cls-2" d="M157.72,102.15l37,64.16a4.2,4.2,0,0,1-3.63,6.3H144.91a4.19,4.19,0,0,0-3.61,2.07l-3.05,5.17a4.2,4.2,0,0,0,3.62,6.33h72.57a4.19,4.19,0,0,0,3.63-6.29L157.62,75.18a4.2,4.2,0,0,0-7.27,0L77.56,201.25a4.2,4.2,0,0,0,3.64,6.29h6a4,4,0,0,0,3.51-2l59.69-103.37A4.2,4.2,0,0,1,157.72,102.15Z"/><path class="cls-3" d="M254.67,200.89,182.2,75.18a4.43,4.43,0,0,0-7.68,0l-2.62,4.53a4.44,4.44,0,0,0,0,4.43L231.26,187h0a4.43,4.43,0,0,1-3.84,6.65H132.91a4.44,4.44,0,0,0-3.81,2.18l-2.77,4.7a4.43,4.43,0,0,0,3.82,6.68H251A4.19,4.19,0,0,0,254.67,200.89Z"/><path class="cls-1" d="M76.92,240.73l3.19-12.08q1.29-4.93,8.43-5h6.84a1,1,0,0,1,.78.35,1.21,1.21,0,0,1,.31.83v15.85a1.11,1.11,0,0,1-.35.84,1.21,1.21,0,0,1-.85.33H92.88a1.18,1.18,0,0,1-.86-.33,1.2,1.2,0,0,1-.33-.86v-3.2h-9l-.85,3.2a1.5,1.5,0,0,1-.57.86,1.56,1.56,0,0,1-.94.33H77.8a.83.83,0,0,1-.71-.28.8.8,0,0,1-.21-.51A2.11,2.11,0,0,1,76.92,240.73Zm6.68-6.81h8.09v-6.63H88.07a3.44,3.44,0,0,0-2.13.69,3.38,3.38,0,0,0-1.22,1.86ZM114,241.34c0,.37-.22.56-.66.56H111a2.2,2.2,0,0,1-1.94-1.19l-1.61-2.63a3.35,3.35,0,0,0-3-1.69v4.74a.75.75,0,0,1-.22.56.77.77,0,0,1-.55.21h-2.84a.76.76,0,0,1-.56-.21.75.75,0,0,1-.22-.56V228.77a.8.8,0,0,1,.22-.56.76.76,0,0,1,.56-.22h2.84a.75.75,0,0,1,.56.22.79.79,0,0,1,.21.56v4.73a3,3,0,0,0,3-1.72l1.21-2.59a2.11,2.11,0,0,1,.75-.87,1.9,1.9,0,0,1,1.07-.33h2.4c.42,0,.63.16.63.49a1.64,1.64,0,0,1-.2.71l-1.64,3.46a4.59,4.59,0,0,1-1.14,1.48,3.43,3.43,0,0,1-1.56.8,5,5,0,0,1,2.7,2.29l2.16,3.49A1.52,1.52,0,0,1,114,241.34Zm2-.21V228.77a.76.76,0,0,1,.22-.56.74.74,0,0,1,.55-.22h2.85a.72.72,0,0,1,.55.22.76.76,0,0,1,.22.56v10.06h5.41V228.77a.76.76,0,0,1,.22-.56.74.74,0,0,1,.55-.22h2.85a.72.72,0,0,1,.55.22.76.76,0,0,1,.22.56v10.06h1.24a.75.75,0,0,1,.79.79v1.51a.75.75,0,0,1-.22.56.8.8,0,0,1-.57.21H116.74a.72.72,0,0,1-.77-.77Zm19.34-.83a8.25,8.25,0,0,1,0-10.69,8.93,8.93,0,0,1,10.9-.05,6.75,6.75,0,0,1,2,5.22v.72a.81.81,0,0,1-.22.57.77.77,0,0,1-.57.22h-9.56a3.33,3.33,0,0,0,.9,2.27,3.5,3.5,0,0,0,2.45.71,2.85,2.85,0,0,0,2.31-.76,2,2,0,0,1,1.54-.77h1.89a.77.77,0,0,1,.57.22.8.8,0,0,1,.22.56q0,3.64-7,3.64A7.58,7.58,0,0,1,135.31,240.3Zm2.5-6.69h5.9c-.09-2-1.06-3-2.94-3S137.91,231.61,137.81,233.61Zm12.83,7.52V228.77a.77.77,0,0,1,.23-.56.72.72,0,0,1,.55-.22h2.84a.73.73,0,0,1,.56.22.8.8,0,0,1,.22.56v4.55h5.56v-4.55a.75.75,0,0,1,.78-.78h2.84a.72.72,0,0,1,.55.22.76.76,0,0,1,.22.56v12.36a.75.75,0,0,1-.22.56.75.75,0,0,1-.55.21h-2.84a.76.76,0,0,1-.56-.22.74.74,0,0,1-.22-.55v-4.74H155v4.74a.75.75,0,0,1-.78.77h-2.84a.76.76,0,0,1-.56-.21A.79.79,0,0,1,150.64,241.13Zm16.3-10.84v-1.52a.76.76,0,0,1,.22-.56.75.75,0,0,1,.56-.22h12.51a.75.75,0,0,1,.56.22.79.79,0,0,1,.21.56v1.52a.79.79,0,0,1-.21.55.75.75,0,0,1-.56.22h-4v10.07a.78.78,0,0,1-.22.55.77.77,0,0,1-.57.22h-2.83a.77.77,0,0,1-.57-.22.78.78,0,0,1-.22-.55V231.06h-4.05a.75.75,0,0,1-.56-.22A.75.75,0,0,1,166.94,230.29Zm14.78,10.54,3.22-12.18q1.29-4.93,8.42-5h6.35a1,1,0,0,1,.75.36,1.27,1.27,0,0,1,.31.84v15.81a1.17,1.17,0,0,1-.33.84,1.11,1.11,0,0,1-.84.35h-2.42a1.18,1.18,0,0,1-1.19-1.19V227.29h-3.1a3.44,3.44,0,0,0-2.13.69,3.38,3.38,0,0,0-1.22,1.86l-2.91,10.87a1.6,1.6,0,0,1-.57.86,1.56,1.56,0,0,1-.94.33h-2.58a.76.76,0,0,1-.65-.28.82.82,0,0,1-.21-.47A2.53,2.53,0,0,1,181.72,240.83Zm22.56.3V228.77a.76.76,0,0,1,.22-.56.74.74,0,0,1,.55-.22h2.66a.75.75,0,0,1,.56.22.76.76,0,0,1,.22.56v8.35L213,228.9a1.75,1.75,0,0,1,.62-.65,1.49,1.49,0,0,1,.82-.26H218a.77.77,0,0,1,.57.22.8.8,0,0,1,.22.56v12.36a.79.79,0,0,1-.22.56.8.8,0,0,1-.57.21H215.3a.73.73,0,0,1-.56-.22.78.78,0,0,1-.22-.55V232.8L210.06,241a1.92,1.92,0,0,1-.63.64,1.5,1.5,0,0,1-.81.27h-3.57a.72.72,0,0,1-.77-.77Zm37.09-10.84v-1.52a.75.75,0,0,1,.78-.78h12.51a.75.75,0,0,1,.56.22.79.79,0,0,1,.21.56v1.52a.79.79,0,0,1-.21.55.75.75,0,0,1-.56.22h-4v10.07a.74.74,0,0,1-.22.55.77.77,0,0,1-.57.22H247a.73.73,0,0,1-.56-.22.75.75,0,0,1-.23-.55V231.06h-4a.75.75,0,0,1-.78-.77Z"/><polygon class="cls-1" points="79.73 255.65 77.08 255.65 77.08 256.7 79.73 256.7 79.73 262.95 81.01 262.95 81.01 256.7 83.65 256.7 83.65 255.65 81.01 255.65 79.73 255.65"/><path class="cls-1" d="M90.82,259.38a2.48,2.48,0,0,0,.42-1.53,2.2,2.2,0,0,0-.76-1.78,3.81,3.81,0,0,0-2.39-.6,4.53,4.53,0,0,0-1.91.35A2.24,2.24,0,0,0,85.09,257a7.44,7.44,0,0,0,0,4.51,2.25,2.25,0,0,0,1.11,1.23,4.52,4.52,0,0,0,2,.38c.28,0,.6,0,1,0s.71-.08,1-.14a4.2,4.2,0,0,0,.84-.22l-.12-.86c-.37.05-.79.1-1.26.13s-.89.05-1.29.05a3.4,3.4,0,0,1-1.35-.22,1.43,1.43,0,0,1-.75-.84,4.34,4.34,0,0,1-.2-1.07H89.5A1.54,1.54,0,0,0,90.82,259.38Zm-4.75-.45a4.66,4.66,0,0,1,.18-1.34,1.33,1.33,0,0,1,.64-.81,2.92,2.92,0,0,1,1.26-.23,2.4,2.4,0,0,1,1.39.3,1.16,1.16,0,0,1,.41,1,1.58,1.58,0,0,1-.15.75.62.62,0,0,1-.63.33Z"/><polygon class="cls-1" points="99.19 255.65 97.81 255.65 95.93 258.66 95.58 258.66 93.7 255.65 92.32 255.65 94.57 259.19 92.12 262.95 93.52 262.95 95.61 259.65 95.89 259.65 97.97 262.95 99.37 262.95 96.92 259.19 99.19 255.65"/><polygon class="cls-1" points="106 258.59 102.16 258.59 102.16 255.65 100.9 255.65 100.9 262.95 102.16 262.95 102.16 259.56 106 259.56 106 262.95 107.26 262.95 107.26 255.65 106 255.65 106 258.59"/><path class="cls-1" d="M114.73,255.84a4.54,4.54,0,0,0-2-.37,4.58,4.58,0,0,0-2,.37,2.23,2.23,0,0,0-1.1,1.23,7.77,7.77,0,0,0,0,4.48,2.21,2.21,0,0,0,1.1,1.22,4.57,4.57,0,0,0,2,.38,4.53,4.53,0,0,0,2-.38,2.18,2.18,0,0,0,1.08-1.22,7.55,7.55,0,0,0,0-4.48A2.2,2.2,0,0,0,114.73,255.84Zm-.11,5.13a1.41,1.41,0,0,1-.65.85,2.59,2.59,0,0,1-1.25.25,2.63,2.63,0,0,1-1.26-.25,1.38,1.38,0,0,1-.66-.85,5.54,5.54,0,0,1-.2-1.66,5.62,5.62,0,0,1,.2-1.67,1.36,1.36,0,0,1,.66-.84,2.63,2.63,0,0,1,1.26-.25,2.59,2.59,0,0,1,1.25.25,1.38,1.38,0,0,1,.65.84,5.62,5.62,0,0,1,.2,1.67A5.54,5.54,0,0,1,114.62,261Z"/><path class="cls-1" d="M122.81,255.65H121a1.88,1.88,0,0,0-1.36.43,2.13,2.13,0,0,0-.54,1.28c0,.26-.07.55-.1.88s-.08.65-.13,1-.11.67-.18,1a6.25,6.25,0,0,1-.24.82,1.94,1.94,0,0,1-.25.45,1.07,1.07,0,0,1-.39.33,2.79,2.79,0,0,1-.65.24l.14,1a3,3,0,0,0,1-.2,2,2,0,0,0,.76-.54,2.58,2.58,0,0,0,.49-.88,6.69,6.69,0,0,0,.32-1.16c.08-.43.15-.87.21-1.33s.13-.91.18-1.35a1.28,1.28,0,0,1,.27-.71.91.91,0,0,1,.67-.21h1.59V263h1.28v-7.3h-1.28Z"/><path class="cls-1" d="M131.57,255.84a4.54,4.54,0,0,0-2-.37,4.61,4.61,0,0,0-2,.37,2.21,2.21,0,0,0-1.09,1.23,7.55,7.55,0,0,0,0,4.48,2.19,2.19,0,0,0,1.09,1.22,4.6,4.6,0,0,0,2,.38,4.53,4.53,0,0,0,2-.38,2.23,2.23,0,0,0,1.09-1.22,7.55,7.55,0,0,0,0-4.48A2.25,2.25,0,0,0,131.57,255.84Zm-.1,5.13a1.38,1.38,0,0,1-.66.85,2.57,2.57,0,0,1-1.25.25,2.63,2.63,0,0,1-1.26-.25,1.38,1.38,0,0,1-.66-.85,5.59,5.59,0,0,1-.19-1.66,5.67,5.67,0,0,1,.19-1.67,1.36,1.36,0,0,1,.66-.84,2.63,2.63,0,0,1,1.26-.25,2.57,2.57,0,0,1,1.25.25,1.36,1.36,0,0,1,.66.84,5.67,5.67,0,0,1,.19,1.67A5.59,5.59,0,0,1,131.47,261Z"/><path class="cls-1" d="M136.6,255.62a1.65,1.65,0,0,0-1.21.4,1.58,1.58,0,0,0-.41,1.19V263h1.26v-5.41a1,1,0,0,1,.21-.69.91.91,0,0,1,.67-.21h3.26l0-.9c-.6-.06-1.23-.1-1.88-.11Z"/><path class="cls-1" d="M143.59,260.63a3.29,3.29,0,0,0-.27.39c-.09.15-.18.3-.26.45h0c0-.18,0-.35,0-.5s0-.32,0-.48v-4.84h-1.16V263H143l3.72-5c.09-.12.18-.26.28-.41a4.83,4.83,0,0,0,.23-.45h0q0,.27,0,.51c0,.15,0,.31,0,.47V263h1.15v-7.3h-1Z"/><path class="cls-1" d="M152.38,260.63a3.29,3.29,0,0,0-.27.39c-.09.15-.18.3-.26.45h0c0-.18,0-.35,0-.5s0-.32,0-.48v-4.84h-1.16V263h1l3.72-5c.09-.12.18-.26.28-.41a4.83,4.83,0,0,0,.23-.45h0l0,.51c0,.15,0,.31,0,.47V263h1.15v-7.3h-1Z"/><path class="cls-1" d="M164.5,260.63a3.29,3.29,0,0,0-.27.39c-.09.15-.18.3-.26.45h0c0-.18,0-.35,0-.5s0-.32,0-.48v-4.84h-1.16V263h1l3.72-5c.09-.12.18-.26.28-.41a4.83,4.83,0,0,0,.23-.45h0q0,.27,0,.51c0,.15,0,.31,0,.47V263h1.15v-7.3h-1Z"/><path class="cls-1" d="M183.16,255.65h-1.34a.52.52,0,0,0-.51.42l-1.51,4.2c-.06.17-.12.34-.17.51l-.15.54h-.24c0-.18-.08-.36-.13-.53s-.11-.34-.18-.52l-1.52-4.2a.74.74,0,0,0-.17-.32.46.46,0,0,0-.32-.1H175.6c-.33,0-.5.16-.5.48l-.3,6.82H176l.27-6.33h.26l1.86,5.12a1,1,0,0,0,.18.31.49.49,0,0,0,.33.11h1a.49.49,0,0,0,.33-.11.73.73,0,0,0,.18-.31l1.86-5.12h.25l.29,6.33H184l-.31-6.82A.42.42,0,0,0,183.16,255.65Z"/><path class="cls-1" d="M191,255.69a3.68,3.68,0,0,0-1.37-.22c-.36,0-.75,0-1.17,0s-.83.07-1.24.12-.79.11-1.13.17l.12.94,1.7-.13c.58,0,1.06-.06,1.45-.06a1.74,1.74,0,0,1,1.17.29,1.37,1.37,0,0,1,.32,1v.64h-3.05a2.14,2.14,0,0,0-1.49.48,1.64,1.64,0,0,0-.53,1.32v.8a2.19,2.19,0,0,0,.27,1.12,1.76,1.76,0,0,0,.76.69,2.73,2.73,0,0,0,1.14.23,3.77,3.77,0,0,0,1.13-.17,4.6,4.6,0,0,0,1-.44,4.32,4.32,0,0,0,.73-.54l.21-.2.15,1.21h1v-5.14a2.9,2.9,0,0,0-.28-1.4A1.57,1.57,0,0,0,191,255.69Zm-.77,5.66a4.83,4.83,0,0,1-1.07.49,3.57,3.57,0,0,1-1,.15,1.22,1.22,0,0,1-.87-.26,1.1,1.1,0,0,1-.27-.83v-.47a1.1,1.1,0,0,1,.21-.72,1,1,0,0,1,.75-.28h2.82v1.46A4.6,4.6,0,0,1,190.22,261.35Z"/><path class="cls-1" d="M199.12,262l-.78.05h-.59a3.27,3.27,0,0,1-1.37-.24,1.41,1.41,0,0,1-.74-.84,5,5,0,0,1-.23-1.68,4.85,4.85,0,0,1,.23-1.66,1.41,1.41,0,0,1,.74-.84,3.27,3.27,0,0,1,1.37-.24l.94,0,1,.07.17-.83a4.44,4.44,0,0,0-.78-.21,8.34,8.34,0,0,0-.84-.1l-.74,0a4.61,4.61,0,0,0-2,.37,2.15,2.15,0,0,0-1.11,1.2,7.84,7.84,0,0,0,0,4.5,2.22,2.22,0,0,0,1.11,1.22,4.61,4.61,0,0,0,2,.37,9.58,9.58,0,0,0,1.3-.09,5.93,5.93,0,0,0,1.19-.28l-.12-.86C199.66,261.94,199.4,262,199.12,262Z"/><polygon class="cls-1" points="203.65 255.65 200.99 255.65 200.99 256.7 203.65 256.7 203.65 262.95 204.92 262.95 204.92 256.7 207.56 256.7 207.56 255.65 204.92 255.65 203.65 255.65"/><path class="cls-1" d="M214.74,259.38a2.55,2.55,0,0,0,.41-1.53,2.17,2.17,0,0,0-.76-1.78,3.79,3.79,0,0,0-2.39-.6,4.45,4.45,0,0,0-1.9.35A2.2,2.2,0,0,0,209,257a5.84,5.84,0,0,0-.35,2.27,6,6,0,0,0,.34,2.24,2.23,2.23,0,0,0,1.12,1.23,4.49,4.49,0,0,0,2,.38c.28,0,.59,0,1,0s.7-.08,1-.14a4.2,4.2,0,0,0,.84-.22l-.12-.86c-.37.05-.79.1-1.25.13s-.9.05-1.3.05a3.4,3.4,0,0,1-1.35-.22,1.38,1.38,0,0,1-.74-.84,3.92,3.92,0,0,1-.2-1.07h3.4A1.58,1.58,0,0,0,214.74,259.38Zm-4.76-.45a5.48,5.48,0,0,1,.18-1.34,1.34,1.34,0,0,1,.65-.81,2.84,2.84,0,0,1,1.25-.23,2.44,2.44,0,0,1,1.4.3,1.16,1.16,0,0,1,.4,1,1.7,1.7,0,0,1-.14.75.64.64,0,0,1-.64.33Z"/><path class="cls-1" d="M221.27,255.47a3.87,3.87,0,0,0-1.1.17,4.71,4.71,0,0,0-1.07.49,4,4,0,0,0-.85.68l-.11-1.16h-1V266h1.26v-2.12c0-.29,0-.56,0-.82s0-.44-.05-.66a5.19,5.19,0,0,0,1.3.57,5.28,5.28,0,0,0,1.42.19,3,3,0,0,0,1.55-.36,2.13,2.13,0,0,0,.91-1.19,6.76,6.76,0,0,0,.3-2.24,5.76,5.76,0,0,0-.58-2.89A2.09,2.09,0,0,0,221.27,255.47Zm1,5.52a1.36,1.36,0,0,1-.56.81,2,2,0,0,1-1,.22,5.09,5.09,0,0,1-1.13-.12l-1.21-.32V257.7a9.27,9.27,0,0,1,1.32-.84,2.66,2.66,0,0,1,1.19-.28,1.53,1.53,0,0,1,.93.26,1.47,1.47,0,0,1,.51.86,6.5,6.5,0,0,1,.16,1.64A5.88,5.88,0,0,1,222.29,261Z"/><path class="cls-1" d="M230.52,262l-.78.05h-.6a3.33,3.33,0,0,1-1.37-.24A1.44,1.44,0,0,1,227,261a5,5,0,0,1-.23-1.68,4.85,4.85,0,0,1,.23-1.66,1.44,1.44,0,0,1,.74-.84,3.33,3.33,0,0,1,1.37-.24l.94,0,1,.07.17-.83a4.44,4.44,0,0,0-.78-.21,8.15,8.15,0,0,0-.83-.1l-.75,0a4.61,4.61,0,0,0-2,.37,2.13,2.13,0,0,0-1.1,1.2,7.61,7.61,0,0,0,0,4.5,2.21,2.21,0,0,0,1.1,1.22,4.61,4.61,0,0,0,2,.37,9.47,9.47,0,0,0,1.3-.09,5.77,5.77,0,0,0,1.19-.28l-.12-.86Q230.93,262,230.52,262Z"/><polygon class="cls-1" points="235.04 255.65 232.38 255.65 232.38 256.7 235.04 256.7 235.04 262.95 236.31 262.95 236.31 256.7 238.96 256.7 238.96 255.65 236.31 255.65 235.04 255.65"/><path class="cls-1" d="M245,259.22v-.05a1.78,1.78,0,0,0,1.2-.47,1.65,1.65,0,0,0,.37-1.18,2,2,0,0,0-.3-1.2,1.59,1.59,0,0,0-1-.58,7.7,7.7,0,0,0-1.8-.17h-1.17l-.92,0-.89.06V263l1,0c.32,0,.66,0,1,0h1.34a7,7,0,0,0,1.7-.17,1.55,1.55,0,0,0,.93-.57,2,2,0,0,0,.3-1.17,2.09,2.09,0,0,0-.41-1.37A2,2,0,0,0,245,259.22Zm-1.55-2.64a5.65,5.65,0,0,1,1.13.09,1.07,1.07,0,0,1,.6.31,1,1,0,0,1,.17.65,1.2,1.2,0,0,1-.16.68.84.84,0,0,1-.54.34,4.53,4.53,0,0,1-1,.09h-1.92v-2.17h.57Zm1.93,5a1,1,0,0,1-.58.36,5.18,5.18,0,0,1-1.08.09h-2v-2.39h1.92a3,3,0,0,1,1.49.27,1,1,0,0,1,.42,1A1.32,1.32,0,0,1,245.37,261.6Z"/><path class="cls-1" d="M255,257.07a2.25,2.25,0,0,0-1.09-1.23,4.54,4.54,0,0,0-2-.37,4.61,4.61,0,0,0-2,.37,2.21,2.21,0,0,0-1.09,1.23,7.55,7.55,0,0,0,0,4.48,2.19,2.19,0,0,0,1.09,1.22,4.6,4.6,0,0,0,2,.38,4.53,4.53,0,0,0,2-.38,2.23,2.23,0,0,0,1.09-1.22,7.77,7.77,0,0,0,0-4.48Zm-1.19,3.9a1.42,1.42,0,0,1-.66.85,2.57,2.57,0,0,1-1.25.25,2.63,2.63,0,0,1-1.26-.25A1.38,1.38,0,0,1,250,261a5.59,5.59,0,0,1-.19-1.66,5.67,5.67,0,0,1,.19-1.67,1.36,1.36,0,0,1,.66-.84,2.63,2.63,0,0,1,1.26-.25,2.57,2.57,0,0,1,1.25.25,1.4,1.4,0,0,1,.66.84,5.67,5.67,0,0,1,.19,1.67A5.59,5.59,0,0,1,253.81,261Z"/></svg>