<svg id="Слой_1" data-name="Слой 1" xmlns="http://www.w3.org/2000/svg" xmlns:xlink="http://www.w3.org/1999/xlink" viewBox="0 0 526.98 268.9"><defs><style>.cls-1{fill:#172845;}.cls-2{fill:url(#Безымянный_градиент_56);}.cls-3{fill:url(#Безымянный_градиент_56-2);}</style><linearGradient id="Безымянный_градиент_56" x1="68.01" y1="115.9" x2="209.66" y2="115.9" gradientUnits="userSpaceOnUse"><stop offset="0.01" stop-color="#ead7b5"/><stop offset="0.13" stop-color="#dcc7a4"/><stop offset="0.19" stop-color="#d4bf9b"/><stop offset="0.41" stop-color="#fafafa"/><stop offset="0.73" stop-color="#d3b593"/><stop offset="0.95" stop-color="#f2ca9a"/></linearGradient><linearGradient id="Безымянный_градиент_56-2" x1="116.73" y1="115.66" x2="246.26" y2="115.66" xlink:href="#Безымянный_градиент_56"/></defs><path class="cls-1" d="M150.72,97.78a4.23,4.23,0,0,1,0,4.2l-45.48,78.76a4,4,0,0,1-3.51,2H95.62A4.2,4.2,0,0,1,92,176.46L140.46,92.6a4.2,4.2,0,0,1,7.27,0Z"/><path class="cls-2" d="M148.74,77.74l37,64.16a4.2,4.2,0,0,1-3.63,6.3H135.93a4.21,4.21,0,0,0-3.61,2.06l-3,5.18a4.2,4.2,0,0,0,3.62,6.33h72.57a4.19,4.19,0,0,0,3.63-6.29L148.64,50.77a4.2,4.2,0,0,0-7.27,0L68.58,176.83a4.2,4.2,0,0,0,3.64,6.3h6a4,4,0,0,0,3.51-2L141.46,77.74A4.2,4.2,0,0,1,148.74,77.74Z"/><path class="cls-3" d="M245.69,176.48,173.22,50.77a4.43,4.43,0,0,0-7.68,0l-2.62,4.53a4.44,4.44,0,0,0,0,4.43l59.36,102.81h0a4.43,4.43,0,0,1-3.84,6.65H123.93a4.44,4.44,0,0,0-3.81,2.18l-2.77,4.69a4.44,4.44,0,0,0,3.82,6.69H242.06A4.19,4.19,0,0,0,245.69,176.48Z"/><path class="cls-1" d="M229.82,102.28l6.12-23.2q2.49-9.48,16.19-9.51h13.14a1.89,1.89,0,0,1,1.49.68,2.33,2.33,0,0,1,.6,1.59v30.44a2.12,2.12,0,0,1-.68,1.6,2.31,2.31,0,0,1-1.63.65h-4.59a2.22,2.22,0,0,1-2.29-2.3V96.09H240.84l-1.63,6.14a2.9,2.9,0,0,1-1.1,1.65,3,3,0,0,1-1.8.65H231.5a1.6,1.6,0,0,1-1.36-.55,1.59,1.59,0,0,1-.4-1A3.88,3.88,0,0,1,229.82,102.28Zm12.82-13.09h15.53V76.47h-7a6.48,6.48,0,0,0-6.43,4.9Z"/><path class="cls-1" d="M301,103.45c0,.72-.42,1.08-1.27,1.08h-4.6a4.21,4.21,0,0,1-3.73-2.3l-3.1-5a6.42,6.42,0,0,0-5.8-3.24V103a1.39,1.39,0,0,1-.43,1.07,1.45,1.45,0,0,1-1.06.42h-5.46a1.44,1.44,0,0,1-1.07-.42,1.42,1.42,0,0,1-.41-1.07V79.32a1.46,1.46,0,0,1,.42-1.08,1.43,1.43,0,0,1,1.06-.43H281a1.43,1.43,0,0,1,1.08.43,1.49,1.49,0,0,1,.41,1.08v9.07q4.25,0,5.8-3.29l2.34-5a4.12,4.12,0,0,1,1.44-1.68,3.64,3.64,0,0,1,2.05-.63h4.6c.82,0,1.22.32,1.22,1a3.35,3.35,0,0,1-.39,1.36l-3.14,6.64a8.87,8.87,0,0,1-2.2,2.85,6.63,6.63,0,0,1-3,1.53,9.53,9.53,0,0,1,5.19,4.39l4.14,6.7A2.79,2.79,0,0,1,301,103.45Z"/><path class="cls-1" d="M304.79,103V79.32a1.47,1.47,0,0,1,1.49-1.51h5.46a1.41,1.41,0,0,1,1.07.43,1.45,1.45,0,0,1,.41,1.08V98.63h10.39V79.32a1.46,1.46,0,0,1,.42-1.08,1.44,1.44,0,0,1,1.07-.43h5.46a1.41,1.41,0,0,1,1.07.43,1.49,1.49,0,0,1,.41,1.08V98.63h2.39a1.44,1.44,0,0,1,1.51,1.51V103a1.42,1.42,0,0,1-.42,1.07,1.5,1.5,0,0,1-1.09.42H306.28a1.44,1.44,0,0,1-1.49-1.49Z"/><path class="cls-1" d="M341.92,101.45q-3.75-3.56-3.75-10.25T342,80.92q3.76-3.6,10.48-3.6t10.45,3.5q3.76,3.5,3.76,10v1.39a1.47,1.47,0,0,1-1.51,1.51H346.77a6.47,6.47,0,0,0,1.72,4.36c1,.91,2.56,1.37,4.72,1.37s3.64-.49,4.43-1.46a3.75,3.75,0,0,1,2.95-1.49h3.64a1.45,1.45,0,0,1,1.08.43,1.47,1.47,0,0,1,.43,1.08q0,7-13.34,7Q345.68,105,341.92,101.45Zm4.8-12.84h11.34c-.16-3.84-2.05-5.76-5.64-5.76S346.92,84.77,346.72,88.61Z"/><path class="cls-1" d="M371.37,103V79.32a1.47,1.47,0,0,1,.43-1.08,1.42,1.42,0,0,1,1.06-.43h5.46a1.39,1.39,0,0,1,1.07.43,1.46,1.46,0,0,1,.42,1.08v8.73h10.67V79.32A1.47,1.47,0,0,1,392,77.81h5.43a1.39,1.39,0,0,1,1.07.43,1.46,1.46,0,0,1,.42,1.08V103a1.44,1.44,0,0,1-1.49,1.49H392a1.51,1.51,0,0,1-1.09-.43,1.47,1.47,0,0,1-.43-1.06V94H379.81V103a1.39,1.39,0,0,1-.43,1.07,1.45,1.45,0,0,1-1.06.42h-5.46a1.44,1.44,0,0,1-1.49-1.49Z"/><path class="cls-1" d="M402.66,82.22v-2.9a1.45,1.45,0,0,1,1.51-1.51h24a1.41,1.41,0,0,1,1.07.43,1.45,1.45,0,0,1,.41,1.08v2.9a1.44,1.44,0,0,1-.41,1.06,1.41,1.41,0,0,1-1.07.43H420.4V103a1.43,1.43,0,0,1-.43,1.06,1.47,1.47,0,0,1-1.08.43h-5.44a1.47,1.47,0,0,1-1.51-1.49V83.71h-7.77a1.47,1.47,0,0,1-1.09-.43A1.45,1.45,0,0,1,402.66,82.22Z"/><path class="cls-1" d="M285.62,152l6.19-23.4q2.49-9.48,16.16-9.51h12.19a1.84,1.84,0,0,1,1.45.71,2.4,2.4,0,0,1,.6,1.61v30.34a2.27,2.27,0,0,1-.65,1.63,2.14,2.14,0,0,1-1.59.67h-4.66a2.24,2.24,0,0,1-1.62-.67,2.21,2.21,0,0,1-.67-1.63V126h-5.95a6.51,6.51,0,0,0-4.08,1.33,6.42,6.42,0,0,0-2.35,3.57l-5.59,20.86A2.88,2.88,0,0,1,294,153.4a3,3,0,0,1-1.81.65H287.2a1.47,1.47,0,0,1-1.25-.54,1.53,1.53,0,0,1-.39-.9A4.32,4.32,0,0,1,285.62,152Z"/><path class="cls-1" d="M328.94,152.56V128.84a1.47,1.47,0,0,1,1.49-1.51h5.09a1.45,1.45,0,0,1,1.51,1.51v16l8.59-15.78a3.16,3.16,0,0,1,1.19-1.25,3,3,0,0,1,1.56-.5h6.82a1.45,1.45,0,0,1,1.09.43,1.47,1.47,0,0,1,.43,1.08v23.72a1.43,1.43,0,0,1-.43,1.07,1.49,1.49,0,0,1-1.09.42H350.1a1.43,1.43,0,0,1-1.07-.43,1.45,1.45,0,0,1-.42-1.06v-16L340,152.29a3.56,3.56,0,0,1-1.19,1.23,2.89,2.89,0,0,1-1.56.53h-6.85a1.44,1.44,0,0,1-1.49-1.49Z"/><path class="cls-1" d="M364.72,150.48q-3.8-3.39-3.79-9.82t3.79-9.77q3.79-3.34,11-3.56V120.6a1.47,1.47,0,0,1,1.51-1.51h5.44a1.39,1.39,0,0,1,1.07.43,1.46,1.46,0,0,1,.42,1.08v6.73q7.19.19,11,3.55t3.79,9.78q0,6.43-3.79,9.82t-11,3.57v6.72a1.51,1.51,0,0,1-.43,1.09,1.47,1.47,0,0,1-1.06.43h-5.44a1.47,1.47,0,0,1-1.51-1.52v-6.72Q368.52,153.85,364.72,150.48ZM371,134.62c-1.06,1.27-1.6,3.28-1.6,6s.54,4.79,1.6,6.07a6.08,6.08,0,0,0,4.89,2v-16A6.13,6.13,0,0,0,371,134.62Zm13,14.09a6.11,6.11,0,0,0,4.89-2q1.59-1.92,1.59-6.07t-1.59-6a6.26,6.26,0,0,0-4.89-2Z"/><path class="cls-1" d="M400.16,131.74v-2.9a1.45,1.45,0,0,1,1.51-1.51h24a1.41,1.41,0,0,1,1.07.43,1.46,1.46,0,0,1,.42,1.08v2.9a1.45,1.45,0,0,1-.42,1.06,1.41,1.41,0,0,1-1.07.43H417.9v19.33a1.42,1.42,0,0,1-.43,1.06,1.47,1.47,0,0,1-1.08.43H411a1.49,1.49,0,0,1-1.08-.43,1.46,1.46,0,0,1-.43-1.06V133.23h-7.77a1.47,1.47,0,0,1-1.09-.43A1.45,1.45,0,0,1,400.16,131.74Z"/></svg>